<?xml version="1.0" encoding="UTF-8"?>
<!DOCTYPE svg PUBLIC "-//W3C//DTD SVG 1.1//EN" "http://www.w3.org/Graphics/SVG/1.1/DTD/svg11.dtd">
<svg xmlns="http://www.w3.org/2000/svg" version="1.1" width="500px" height="500px" style="shape-rendering:geometricPrecision; text-rendering:geometricPrecision; image-rendering:optimizeQuality; fill-rule:evenodd; clip-rule:evenodd" xmlns:xlink="http://www.w3.org/1999/xlink">
<g><path style="opacity:0.328" fill="#030303" d="M 331.5,168.5 C 330.941,164.966 329.941,161.466 328.5,158C 329.654,157.086 329.487,156.253 328,155.5C 328.435,159.86 328.602,164.193 328.5,168.5C 328.121,170.213 327.121,171.213 325.5,171.5C 326.687,165.552 326.687,159.552 325.5,153.5C 327.167,153.5 328.833,153.5 330.5,153.5C 331.164,158.473 331.497,163.473 331.5,168.5 Z"/></g>
<g><path style="opacity:0.993" fill="#151515" d="M 341.5,164.5 C 341.5,164.167 341.5,163.833 341.5,163.5C 343.887,161.371 345.387,159.038 346,156.5C 346.692,157.025 347.192,157.692 347.5,158.5C 345.218,162.606 343.385,166.939 342,171.5C 342.064,169.044 341.898,166.711 341.5,164.5 Z"/></g>
<g><path style="opacity:0.386" fill="#060606" d="M 357.5,162.5 C 355.456,161.969 353.789,160.802 352.5,159C 351.234,158.691 350.067,158.191 349,157.5C 348.833,157.833 348.667,158.167 348.5,158.5C 349.655,159.95 351.155,160.95 353,161.5C 353.739,163.221 354.573,164.887 355.5,166.5C 356.425,165.643 357.092,164.643 357.5,163.5C 358.833,165.5 358.833,167.5 357.5,169.5C 355.588,167.128 354.422,167.795 354,171.5C 353.329,172.252 352.496,172.586 351.5,172.5C 351.389,173.117 351.056,173.617 350.5,174C 348.167,174.333 345.833,174.667 343.5,175C 346.126,175.995 348.793,176.328 351.5,176C 353.416,173.91 355.416,172.077 357.5,170.5C 357.16,173.675 355.493,175.841 352.5,177C 348.095,177.696 343.761,177.363 339.5,176C 338.646,171.913 339.313,168.079 341.5,164.5C 341.898,166.711 342.064,169.044 342,171.5C 343.385,166.939 345.218,162.606 347.5,158.5C 347.192,157.692 346.692,157.025 346,156.5C 345.387,159.038 343.887,161.371 341.5,163.5C 342.008,161.135 342.675,158.801 343.5,156.5C 349.606,155.222 354.273,157.222 357.5,162.5 Z M 351.5,172.5 C 348.795,173.777 346.128,173.61 343.5,172C 345.008,168.139 346.508,164.305 348,160.5C 353.825,163.131 354.991,167.131 351.5,172.5 Z"/></g>
<g><path style="opacity:0.468" fill="#040404" d="M 302.5,162.5 C 301.4,163.558 300.066,164.392 298.5,165C 300.246,167.659 301.58,170.492 302.5,173.5C 301.222,173.218 300.222,172.551 299.5,171.5C 299.082,168.91 298.082,166.577 296.5,164.5C 298.304,163.232 300.304,162.565 302.5,162.5 Z"/></g>
<g><path style="opacity:0.99" fill="#131313" d="M 302.5,162.5 C 300.304,162.565 298.304,163.232 296.5,164.5C 298.082,166.577 299.082,168.91 299.5,171.5C 297.205,169.514 295.539,167.014 294.5,164C 296.468,162.456 298.635,161.289 301,160.5C 301.717,161.044 302.217,161.711 302.5,162.5 Z"/></g>
<g><path style="opacity:0.976" fill="#141414" d="M 357.5,162.5 C 357.5,162.833 357.5,163.167 357.5,163.5C 357.092,164.643 356.425,165.643 355.5,166.5C 354.573,164.887 353.739,163.221 353,161.5C 351.155,160.95 349.655,159.95 348.5,158.5C 348.667,158.167 348.833,157.833 349,157.5C 350.067,158.191 351.234,158.691 352.5,159C 353.789,160.802 355.456,161.969 357.5,162.5 Z"/></g>
<g><path style="opacity:0.977" fill="#121212" d="M 331.5,168.5 C 331.5,168.833 331.5,169.167 331.5,169.5C 329.865,171.877 327.532,173.377 324.5,174C 320.24,174.701 317.24,173.035 315.5,169C 315.389,165.263 315.722,161.429 316.5,157.5C 316.747,161.964 317.58,166.631 319,171.5C 319.77,172.598 320.603,172.598 321.5,171.5C 322.833,171.5 324.167,171.5 325.5,171.5C 327.121,171.213 328.121,170.213 328.5,168.5C 328.602,164.193 328.435,159.86 328,155.5C 329.487,156.253 329.654,157.086 328.5,158C 329.941,161.466 330.941,164.966 331.5,168.5 Z"/></g>
<g><path style="opacity:0.439" fill="#050505" d="M 302.5,162.5 C 302.217,161.711 301.717,161.044 301,160.5C 298.635,161.289 296.468,162.456 294.5,164C 295.539,167.014 297.205,169.514 299.5,171.5C 298.952,174.798 299.952,177.798 302.5,180.5C 302.727,178.06 302.727,175.727 302.5,173.5C 303.864,175.22 304.864,177.22 305.5,179.5C 304.653,180.845 303.487,181.845 302,182.5C 299.167,177.5 296.333,172.5 293.5,167.5C 290.346,170.583 288.013,170.083 286.5,166C 291.5,163.5 296.5,161 301.5,158.5C 303.189,159.775 303.522,161.108 302.5,162.5 Z"/></g>
<g><path style="opacity:0.996" fill="#131313" d="M 357.5,169.5 C 357.5,169.833 357.5,170.167 357.5,170.5C 355.416,172.077 353.416,173.91 351.5,176C 348.793,176.328 346.126,175.995 343.5,175C 345.833,174.667 348.167,174.333 350.5,174C 351.056,173.617 351.389,173.117 351.5,172.5C 352.496,172.586 353.329,172.252 354,171.5C 354.422,167.795 355.588,167.128 357.5,169.5 Z"/></g>
<g><path style="opacity:0.458" fill="#060606" d="M 321.5,171.5 C 320.603,172.598 319.77,172.598 319,171.5C 317.58,166.631 316.747,161.964 316.5,157.5C 315.722,161.429 315.389,165.263 315.5,169C 317.24,173.035 320.24,174.701 324.5,174C 327.532,173.377 329.865,171.877 331.5,169.5C 331.548,172.292 330.215,174.125 327.5,175C 324.167,175.667 320.833,175.667 317.5,175C 316.299,174.097 315.465,172.931 315,171.5C 313.855,166.201 313.522,160.868 314,155.5C 315.333,154.167 316.667,154.167 318,155.5C 318.336,159.689 318.836,163.856 319.5,168C 319.862,169.434 320.528,170.601 321.5,171.5 Z"/></g>
<g><path style="opacity:0.14" fill="#050505" d="M 231.5,203.5 C 225.575,203.808 219.741,203.475 214,202.5C 213.5,194.173 213.334,185.84 213.5,177.5C 200.167,177.5 186.833,177.5 173.5,177.5C 173.667,198.169 173.5,218.836 173,239.5C 172.617,240.056 172.117,240.389 171.5,240.5C 171.333,219.164 171.5,197.831 172,176.5C 186.421,175.51 200.921,175.176 215.5,175.5C 215.5,184.167 215.5,192.833 215.5,201.5C 221.271,200.887 226.604,201.554 231.5,203.5 Z"/></g>
<g><path style="opacity:1" fill="#131313" d="M 299.5,171.5 C 300.222,172.551 301.222,173.218 302.5,173.5C 302.727,175.727 302.727,178.06 302.5,180.5C 299.952,177.798 298.952,174.798 299.5,171.5 Z"/></g>
<g><path style="opacity:1" fill="#151515" d="M 231.5,203.5 C 231.5,204.833 231.5,206.167 231.5,207.5C 230.711,207.783 230.044,208.283 229.5,209C 230.833,216 230.833,223 229.5,230C 230.139,234.121 230.805,238.287 231.5,242.5C 232.086,242.291 232.586,241.957 233,241.5C 233.5,229.171 233.667,216.838 233.5,204.5C 245.469,203.584 257.469,203.251 269.5,203.5C 269.756,205.792 269.423,207.959 268.5,210C 269.044,210.717 269.711,211.217 270.5,211.5C 269.167,212.833 269.167,214.167 270.5,215.5C 269.669,227.66 269.169,239.993 269,252.5C 268.465,254.271 267.631,254.604 266.5,253.5C 267.363,252.274 267.363,250.94 266.5,249.5C 267.483,234.912 267.816,220.245 267.5,205.5C 257.32,205.44 247.32,205.44 237.5,205.5C 236.501,217.148 236.168,228.814 236.5,240.5C 236.5,241.5 236.5,242.5 236.5,243.5C 234.142,244.178 231.975,244.512 230,244.5C 228.961,243.29 227.794,242.29 226.5,241.5C 226.5,241.167 226.5,240.833 226.5,240.5C 227.167,240.5 227.5,240.167 227.5,239.5C 227.785,230.449 228.118,221.615 228.5,213C 227.883,210.723 227.216,208.556 226.5,206.5C 216.681,205.506 206.681,205.173 196.5,205.5C 196.171,219.677 196.504,233.677 197.5,247.5C 197.338,249.527 197.505,251.527 198,253.5C 198.422,255.426 199.589,256.426 201.5,256.5C 201.5,256.833 201.5,257.167 201.5,257.5C 200.637,258.94 200.637,260.274 201.5,261.5C 204.484,264.985 207.651,268.318 211,271.5C 211.333,271.167 211.667,270.833 212,270.5C 216.805,272.527 221.471,274.86 226,277.5C 228.667,276.167 231.333,276.167 234,277.5C 238.918,276.147 243.751,274.48 248.5,272.5C 249.298,272.043 249.631,271.376 249.5,270.5C 250.552,270.649 251.552,270.483 252.5,270C 255.729,267.259 259.062,264.759 262.5,262.5C 263.953,263.825 263.619,264.658 261.5,265C 262.931,265.465 264.097,266.299 265,267.5C 266.302,266.915 267.469,266.249 268.5,265.5C 268.833,265.5 269.167,265.5 269.5,265.5C 270.531,266.249 271.698,266.915 273,267.5C 273.717,266.956 274.217,266.289 274.5,265.5C 275.906,265.973 276.573,266.973 276.5,268.5C 272.023,268.052 267.19,268.719 262,270.5C 261.5,281.828 261.333,293.162 261.5,304.5C 268.968,304.315 276.134,304.649 283,305.5C 285.666,304.048 288.166,302.382 290.5,300.5C 294.475,299.682 298.141,298.016 301.5,295.5C 301.088,296.782 301.754,297.782 303.5,298.5C 298.541,302.403 292.541,305.236 285.5,307C 277.254,307.815 269.088,307.648 261,306.5C 260.667,307.167 260.333,307.833 260,308.5C 258.688,296.99 258.021,285.323 258,273.5C 257.617,272.944 257.117,272.611 256.5,272.5C 256.631,271.761 256.464,271.094 256,270.5C 245.618,278.329 233.785,280.495 220.5,277C 215.449,275.359 210.615,273.193 206,270.5C 202.539,273.961 199.039,277.461 195.5,281C 191.814,283.507 188.148,286.007 184.5,288.5C 180.915,290.806 176.915,292.139 172.5,292.5C 164.304,292.374 155.804,292.374 147,292.5C 145.333,291.833 143.667,291.167 142,290.5C 141.601,290.728 141.435,291.062 141.5,291.5C 141.167,291.5 140.833,291.5 140.5,291.5C 139.378,290.053 137.878,289.053 136,288.5C 135.601,288.728 135.435,289.062 135.5,289.5C 131.067,288.786 127.4,286.786 124.5,283.5C 124.611,282.883 124.944,282.383 125.5,282C 123.372,281.345 121.372,280.511 119.5,279.5C 118.581,276.911 116.914,274.911 114.5,273.5C 112.75,272.341 111.75,270.674 111.5,268.5C 109.541,263.668 108.041,258.668 107,253.5C 106.617,252.944 106.117,252.611 105.5,252.5C 105.5,252.167 105.5,251.833 105.5,251.5C 106.552,251.649 107.552,251.483 108.5,251C 106.321,250.558 105.655,249.558 106.5,248C 105.773,246.601 105.273,245.101 105,243.5C 104.71,237.387 104.543,231.387 104.5,225.5C 118.167,225.5 131.833,225.5 145.5,225.5C 144.757,230.972 145.424,236.306 147.5,241.5C 148.833,243.5 150.167,245.5 151.5,247.5C 152.207,249.134 153.373,250.468 155,251.5C 157.59,250.622 159.923,250.622 162,251.5C 164.864,250.624 167.031,248.957 168.5,246.5C 169.471,244.517 170.471,242.517 171.5,240.5C 172.117,240.389 172.617,240.056 173,239.5C 173.5,218.836 173.667,198.169 173.5,177.5C 186.833,177.5 200.167,177.5 213.5,177.5C 213.334,185.84 213.5,194.173 214,202.5C 219.741,203.475 225.575,203.808 231.5,203.5 Z"/></g>
<g><path style="opacity:0.933" fill="#070707" d="M 370.5,165.5 C 372.2,166.016 373.533,167.016 374.5,168.5C 371.225,174.731 367.225,180.397 362.5,185.5C 360.276,184.919 359.443,183.586 360,181.5C 363.759,176.309 367.259,170.976 370.5,165.5 Z"/></g>
<g><path style="opacity:0.994" fill="#151515" d="M 370.5,168.5 C 371.573,169.251 371.74,170.251 371,171.5C 369.732,173.717 368.232,175.717 366.5,177.5C 366.167,177.167 365.833,176.833 365.5,176.5C 367.178,173.805 368.844,171.139 370.5,168.5 Z"/></g>
<g><path style="opacity:0.928" fill="#080808" d="M 275.5,185.5 C 275.369,186.239 275.536,186.906 276,187.5C 278.301,186.133 280.801,185.466 283.5,185.5C 279.674,190.019 275.174,191.019 270,188.5C 267.771,181.638 270.271,177.304 277.5,175.5C 279.441,175.804 281.107,176.637 282.5,178C 279.795,179.741 276.962,181.241 274,182.5C 273.275,184.157 273.775,185.157 275.5,185.5 Z"/></g>
<g><path style="opacity:0.853" fill="#040404" d="M 285.5,181.5 C 283.579,182.363 281.579,183.029 279.5,183.5C 280.736,181.957 282.402,180.957 284.5,180.5C 285.107,180.624 285.44,180.957 285.5,181.5 Z"/></g>
<g><path style="opacity:0.993" fill="#121212" d="M 285.5,181.5 C 285.833,181.5 286.167,181.5 286.5,181.5C 289.312,185.673 288.646,186.673 284.5,184.5C 283.893,184.624 283.56,184.957 283.5,185.5C 280.801,185.466 278.301,186.133 276,187.5C 275.536,186.906 275.369,186.239 275.5,185.5C 276.514,184.326 277.847,183.66 279.5,183.5C 281.579,183.029 283.579,182.363 285.5,181.5 Z"/></g>
<g><path style="opacity:0.959" fill="#080707" d="M 286.5,181.5 C 288.411,181.574 289.578,182.574 290,184.5C 291.26,189.814 289.426,193.647 284.5,196C 281.961,196.796 279.628,196.629 277.5,195.5C 276.209,194.458 276.209,193.292 277.5,192C 280.334,191.955 282.834,191.121 285,189.5C 285.773,187.648 285.273,186.314 283.5,185.5C 283.56,184.957 283.893,184.624 284.5,184.5C 288.646,186.673 289.312,185.673 286.5,181.5 Z"/></g>
<g><path style="opacity:0.988" fill="#151515" d="M 277.5,195.5 C 277.461,194.244 277.961,193.244 279,192.5C 280.399,193.227 281.899,193.727 283.5,194C 281.414,194.315 279.414,194.815 277.5,195.5 Z"/></g>
<g><path style="opacity:0.725" fill="#060606" d="M 379.5,179.5 C 391.384,178.879 395.551,184.212 392,195.5C 386.979,201.35 381.313,202.35 375,198.5C 369.805,190.586 371.305,184.252 379.5,179.5 Z M 386.5,194.5 C 384.742,194.877 383.075,195.544 381.5,196.5C 375.001,192.614 375.001,188.614 381.5,184.5C 385.492,183.514 388.159,185.18 389.5,189.5C 388.74,191.36 387.74,193.027 386.5,194.5 Z"/></g>
<g><path style="opacity:1" fill="#151515" d="M 390.5,185.5 C 392.938,188.224 393.105,191.224 391,194.5C 388.876,195.622 387.043,197.122 385.5,199C 383.011,199.941 381.011,199.441 379.5,197.5C 382.631,198.092 384.964,197.092 386.5,194.5C 388.411,194.426 389.578,193.426 390,191.5C 390.495,189.527 390.662,187.527 390.5,185.5 Z"/></g>
<g><path style="opacity:0.231" fill="#080808" d="M 381.5,184.5 C 375.001,188.614 375.001,192.614 381.5,196.5C 383.075,195.544 384.742,194.877 386.5,194.5C 384.964,197.092 382.631,198.092 379.5,197.5C 375.184,195.212 374.018,191.879 376,187.5C 377.264,185.393 379.097,184.393 381.5,184.5 Z"/></g>
<g><path style="opacity:0.902" fill="#060606" d="M 390.5,185.5 C 390.662,187.527 390.495,189.527 390,191.5C 389.578,193.426 388.411,194.426 386.5,194.5C 387.74,193.027 388.74,191.36 389.5,189.5C 388.159,185.18 385.492,183.514 381.5,184.5C 381.791,183.351 382.624,182.684 384,182.5C 386.511,182.84 388.678,183.84 390.5,185.5 Z"/></g>
<g><path style="opacity:0.996" fill="#151515" d="M 390.5,185.5 C 388.678,183.84 386.511,182.84 384,182.5C 382.624,182.684 381.791,183.351 381.5,184.5C 379.097,184.393 377.264,185.393 376,187.5C 374.018,191.879 375.184,195.212 379.5,197.5C 377.039,198.301 375.206,197.301 374,194.5C 373.038,185.825 376.705,181.158 385,180.5C 387.978,180.981 389.811,182.647 390.5,185.5 Z"/></g>
<g><path style="opacity:0.724" fill="#0c0c0c" d="M 282.5,200.5 C 291.5,200.5 300.5,200.5 309.5,200.5C 308.469,201.249 307.302,201.915 306,202.5C 302.751,201.853 299.418,201.519 296,201.5C 292.424,201.515 289.258,202.182 286.5,203.5C 285.399,201.606 284.066,200.939 282.5,201.5C 282.5,201.167 282.5,200.833 282.5,200.5 Z"/></g>
<g><path style="opacity:0.084" fill="#000000" d="M 316.5,200.5 C 317.117,200.611 317.617,200.944 318,201.5C 318.83,224.004 318.663,246.337 317.5,268.5C 317.83,247.993 317.497,227.66 316.5,207.5C 315.918,205.331 315.918,202.998 316.5,200.5 Z"/></g>
<g><path style="opacity:1" fill="#161516" d="M 309.5,200.5 C 311.833,200.5 314.167,200.5 316.5,200.5C 315.918,202.998 315.918,205.331 316.5,207.5C 316.667,230.169 316.5,252.836 316,275.5C 314.184,278.83 313.184,282.164 313,285.5C 310.248,288.578 307.914,291.911 306,295.5C 303.266,294.638 303.099,293.805 305.5,293C 304.742,291.636 305.242,290.469 307,289.5C 307.49,288.207 307.657,286.873 307.5,285.5C 310.032,285.171 311.032,284.005 310.5,282C 311.061,280.324 312.061,278.991 313.5,278C 312.594,276.301 312.261,274.467 312.5,272.5C 313.172,250.764 313.838,228.931 314.5,207C 313.956,206.283 313.289,205.783 312.5,205.5C 311.833,205.5 311.167,205.5 310.5,205.5C 309.469,204.751 308.302,204.085 307,203.5C 300.167,204.816 293.334,204.816 286.5,203.5C 289.258,202.182 292.424,201.515 296,201.5C 299.418,201.519 302.751,201.853 306,202.5C 307.302,201.915 308.469,201.249 309.5,200.5 Z"/></g>
<g><path style="opacity:0.955" fill="#090909" d="M 235.5,201.5 C 247.5,201.5 259.5,201.5 271.5,201.5C 271.5,204.5 271.5,207.5 271.5,210.5C 270.833,210.5 270.5,210.833 270.5,211.5C 269.711,211.217 269.044,210.717 268.5,210C 269.423,207.959 269.756,205.792 269.5,203.5C 257.469,203.251 245.469,203.584 233.5,204.5C 234.167,203.5 234.833,202.5 235.5,201.5 Z"/></g>
<g><path style="opacity:0.952" fill="#090809" d="M 266.5,249.5 C 265.833,250.5 265.167,251.5 264.5,252.5C 263.833,250.181 263.666,247.847 264,245.5C 264.333,246.5 264.667,247.5 265,248.5C 266.406,234.885 266.906,221.218 266.5,207.5C 257.167,206.167 247.833,206.167 238.5,207.5C 237.833,207.5 237.5,207.833 237.5,208.5C 237.828,219.346 237.494,230.013 236.5,240.5C 236.168,228.814 236.501,217.148 237.5,205.5C 247.32,205.44 257.32,205.44 267.5,205.5C 267.816,220.245 267.483,234.912 266.5,249.5 Z"/></g>
<g><path style="opacity:0.513" fill="#0c0a0a" d="M 286.5,203.5 C 293.334,204.816 300.167,204.816 307,203.5C 308.302,204.085 309.469,204.751 310.5,205.5C 310.5,205.833 310.5,206.167 310.5,206.5C 299.986,206.172 289.653,206.506 279.5,207.5C 278.833,207.5 278.5,207.833 278.5,208.5C 278.5,208.833 278.5,209.167 278.5,209.5C 278.5,209.833 278.5,210.167 278.5,210.5C 278.5,210.833 278.5,211.167 278.5,211.5C 278.5,212.167 278.5,212.833 278.5,213.5C 278.829,226.344 278.495,239.011 277.5,251.5C 277.652,236.78 277.318,221.947 276.5,207C 276.645,206.228 276.978,205.561 277.5,205C 279.999,204.714 282.165,204.881 284,205.5C 284.995,204.934 285.828,204.267 286.5,203.5 Z"/></g>
<g><path style="opacity:0.04" fill="#010101" d="M 226.5,206.5 C 226.5,206.833 226.5,207.167 226.5,207.5C 225.25,207.577 224.417,208.244 224,209.5C 223.161,208.376 221.994,207.709 220.5,207.5C 216.935,208.613 213.435,208.613 210,207.5C 206.58,208.182 203.246,209.182 200,210.5C 199.802,222.033 199.302,233.533 198.5,245C 199.13,248.966 200.13,252.8 201.5,256.5C 199.589,256.426 198.422,255.426 198,253.5C 197.505,251.527 197.338,249.527 197.5,247.5C 197.5,233.833 197.5,220.167 197.5,206.5C 207.167,206.5 216.833,206.5 226.5,206.5 Z"/></g>
<g><path style="opacity:0.056" fill="#010101" d="M 238.5,207.5 C 247.833,206.167 257.167,206.167 266.5,207.5C 259.149,208.338 251.816,208.338 244.5,207.5C 242.616,207.716 240.949,208.383 239.5,209.5C 239.087,219.6 238.92,229.934 239,240.5C 238.623,241.942 237.79,242.942 236.5,243.5C 236.5,242.5 236.5,241.5 236.5,240.5C 237.494,230.013 237.828,219.346 237.5,208.5C 239.224,208.539 239.557,208.206 238.5,207.5 Z"/></g>
<g><path style="opacity:0.109" fill="#030101" d="M 310.5,206.5 C 310.5,206.167 310.5,205.833 310.5,205.5C 311.167,205.5 311.833,205.5 312.5,205.5C 312.462,228.055 312.462,250.389 312.5,272.5C 312.261,274.467 312.594,276.301 313.5,278C 312.061,278.991 311.061,280.324 310.5,282C 311.032,284.005 310.032,285.171 307.5,285.5C 308.32,283.188 309.153,280.854 310,278.5C 310.216,270.964 310.716,263.464 311.5,256C 311.289,239.358 310.956,222.858 310.5,206.5 Z"/></g>
<g><path style="opacity:0.795" fill="#030303" d="M 282.5,200.5 C 282.5,200.833 282.5,201.167 282.5,201.5C 279.482,201.335 276.482,201.502 273.5,202C 273.194,215.536 273.528,229.203 274.5,243C 273.934,243.995 273.267,244.828 272.5,245.5C 272.5,230.5 272.5,215.5 272.5,200.5C 275.833,200.5 279.167,200.5 282.5,200.5 Z"/></g>
<g><path style="opacity:1" fill="#151515" d="M 349.5,242.5 C 349.893,244.284 350.559,245.95 351.5,247.5C 354.143,248.979 356.643,248.646 359,246.5C 359.226,234.134 359.726,221.801 360.5,209.5C 369.5,209.5 378.5,209.5 387.5,209.5C 387.667,223.171 387.5,236.837 387,250.5C 386.5,251 386,251.5 385.5,252C 386.38,253.356 386.714,254.856 386.5,256.5C 386.672,257.492 386.338,258.158 385.5,258.5C 383.234,261.378 381.234,264.378 379.5,267.5C 379.5,268.167 379.167,268.5 378.5,268.5C 375.931,268.738 374.265,270.071 373.5,272.5C 370.449,272.454 367.782,273.454 365.5,275.5C 364.914,275.291 364.414,274.957 364,274.5C 357.264,276.962 350.431,277.128 343.5,275C 342.747,273.513 341.914,273.346 341,274.5C 332.444,271.278 326.444,265.278 323,256.5C 321.504,251.095 320.337,245.761 319.5,240.5C 319.5,231.167 319.5,221.833 319.5,212.5C 320.404,211.791 320.737,210.791 320.5,209.5C 329.418,209.183 338.251,209.516 347,210.5C 347.781,211.729 348.281,213.062 348.5,214.5C 348.621,218.939 348.288,223.773 347.5,229C 347.439,233.746 348.105,238.246 349.5,242.5 Z"/></g>
<g><path style="opacity:0.531" fill="#020302" d="M 271.5,210.5 C 271.829,223.344 271.495,236.011 270.5,248.5C 270.5,237.5 270.5,226.5 270.5,215.5C 269.167,214.167 269.167,212.833 270.5,211.5C 270.5,210.833 270.833,210.5 271.5,210.5 Z"/></g>
<g><path style="opacity:0.122" fill="#040404" d="M 386.5,256.5 C 386.714,254.856 386.38,253.356 385.5,252C 386,251.5 386.5,251 387,250.5C 387.5,236.837 387.667,223.171 387.5,209.5C 378.5,209.5 369.5,209.5 360.5,209.5C 359.726,221.801 359.226,234.134 359,246.5C 356.643,248.646 354.143,248.979 351.5,247.5C 354.044,247.896 356.211,247.229 358,245.5C 358.5,233.171 358.667,220.838 358.5,208.5C 368.833,208.5 379.167,208.5 389.5,208.5C 389.667,221.171 389.5,233.838 389,246.5C 388.689,250.09 387.856,253.423 386.5,256.5 Z"/></g>
<g><path style="opacity:0.725" fill="#0d0b0b" d="M 226.5,206.5 C 227.216,208.556 227.883,210.723 228.5,213C 228.118,221.615 227.785,230.449 227.5,239.5C 226.662,239.158 226.328,238.492 226.5,237.5C 226.5,227.5 226.5,217.5 226.5,207.5C 226.5,207.167 226.5,206.833 226.5,206.5 Z"/></g>
<g><path style="opacity:0.598" fill="#0a0a0a" d="M 349.5,242.5 C 348.105,238.246 347.439,233.746 347.5,229C 348.288,223.773 348.621,218.939 348.5,214.5C 348.281,213.062 347.781,211.729 347,210.5C 338.251,209.516 329.418,209.183 320.5,209.5C 320.737,210.791 320.404,211.791 319.5,212.5C 319.5,211.167 319.5,209.833 319.5,208.5C 329.5,208.5 339.5,208.5 349.5,208.5C 349.5,219.833 349.5,231.167 349.5,242.5 Z"/></g>
<g><path style="opacity:0.266" fill="#050505" d="M 104.5,225.5 C 104.543,231.387 104.71,237.387 105,243.5C 105.273,245.101 105.773,246.601 106.5,248C 105.655,249.558 106.321,250.558 108.5,251C 107.552,251.483 106.552,251.649 105.5,251.5C 104.082,246.234 103.415,240.734 103.5,235C 103.502,231.648 103.835,228.482 104.5,225.5 Z"/></g>
<g><path style="opacity:0.672" fill="#060606" d="M 235.5,201.5 C 234.833,202.5 234.167,203.5 233.5,204.5C 233.667,216.838 233.5,229.171 233,241.5C 232.586,241.957 232.086,242.291 231.5,242.5C 230.805,238.287 230.139,234.121 229.5,230C 230.833,223 230.833,216 229.5,209C 230.044,208.283 230.711,207.783 231.5,207.5C 231.333,218.505 231.5,229.505 232,240.5C 232.5,227.504 232.667,214.504 232.5,201.5C 233.5,201.5 234.5,201.5 235.5,201.5 Z"/></g>
<g><path style="opacity:0.957" fill="#0b0b0b" d="M 145.5,225.5 C 146.458,230.658 147.125,235.991 147.5,241.5C 145.424,236.306 144.757,230.972 145.5,225.5 Z"/></g>
<g><path style="opacity:0.665" fill="#0d0b0c" d="M 226.5,206.5 C 216.833,206.5 207.167,206.5 197.5,206.5C 197.5,220.167 197.5,233.833 197.5,247.5C 196.504,233.677 196.171,219.677 196.5,205.5C 206.681,205.173 216.681,205.506 226.5,206.5 Z"/></g>
<g><path style="opacity:0.062" fill="#020101" d="M 226.5,237.5 C 226.328,238.492 226.662,239.158 227.5,239.5C 227.5,240.167 227.167,240.5 226.5,240.5C 225.167,240.833 225.167,241.167 226.5,241.5C 227.794,242.29 228.961,243.29 230,244.5C 231.975,244.512 234.142,244.178 236.5,243.5C 235.402,244.397 235.402,245.23 236.5,246C 233.574,246.218 230.74,246.718 228,247.5C 224.287,244.052 223.287,240.052 225,235.5C 225.278,236.416 225.778,237.082 226.5,237.5 Z"/></g>
<g><path style="opacity:0.953" fill="#0b0909" d="M 312.5,205.5 C 313.289,205.783 313.956,206.283 314.5,207C 313.838,228.931 313.172,250.764 312.5,272.5C 312.462,250.389 312.462,228.055 312.5,205.5 Z"/></g>
<g><path style="opacity:0.997" fill="#141414" d="M 282.5,201.5 C 284.066,200.939 285.399,201.606 286.5,203.5C 285.828,204.267 284.995,204.934 284,205.5C 282.165,204.881 279.999,204.714 277.5,205C 276.978,205.561 276.645,206.228 276.5,207C 277.318,221.947 277.652,236.78 277.5,251.5C 277.822,257.358 277.489,263.025 276.5,268.5C 276.573,266.973 275.906,265.973 274.5,265.5C 273.91,259.034 273.243,252.7 272.5,246.5C 272.5,246.167 272.5,245.833 272.5,245.5C 273.267,244.828 273.934,243.995 274.5,243C 273.528,229.203 273.194,215.536 273.5,202C 276.482,201.502 279.482,201.335 282.5,201.5 Z"/></g>
<g><path style="opacity:0.57" fill="#0d0d0d" d="M 168.5,246.5 C 167.031,248.957 164.864,250.624 162,251.5C 159.923,250.622 157.59,250.622 155,251.5C 153.373,250.468 152.207,249.134 151.5,247.5C 157.399,250.385 163.065,250.052 168.5,246.5 Z"/></g>
<g><path style="opacity:0.996" fill="#111010" d="M 270.5,215.5 C 270.5,226.5 270.5,237.5 270.5,248.5C 270.19,254.456 268.19,259.789 264.5,264.5C 265.689,265.429 267.022,265.762 268.5,265.5C 267.469,266.249 266.302,266.915 265,267.5C 264.097,266.299 262.931,265.465 261.5,265C 263.619,264.658 263.953,263.825 262.5,262.5C 262.389,261.883 262.056,261.383 261.5,261C 263.873,258.67 264.873,256.17 264.5,253.5C 264.5,253.167 264.5,252.833 264.5,252.5C 265.167,251.5 265.833,250.5 266.5,249.5C 267.363,250.94 267.363,252.274 266.5,253.5C 267.631,254.604 268.465,254.271 269,252.5C 269.169,239.993 269.669,227.66 270.5,215.5 Z"/></g>
<g><path style="opacity:0.573" fill="#070707" d="M 105.5,252.5 C 106.117,252.611 106.617,252.944 107,253.5C 108.041,258.668 109.541,263.668 111.5,268.5C 108.148,263.79 106.148,258.457 105.5,252.5 Z"/></g>
<g><path style="opacity:0.802" fill="#060707" d="M 272.5,246.5 C 273.243,252.7 273.91,259.034 274.5,265.5C 274.217,266.289 273.717,266.956 273,267.5C 271.698,266.915 270.531,266.249 269.5,265.5C 270.5,265.5 271.5,265.5 272.5,265.5C 272.5,259.167 272.5,252.833 272.5,246.5 Z"/></g>
<g><path style="opacity:0.496" fill="#090807" d="M 201.5,257.5 C 213.916,274.409 229.916,278.742 249.5,270.5C 249.631,271.376 249.298,272.043 248.5,272.5C 243.751,274.48 238.918,276.147 234,277.5C 231.333,276.167 228.667,276.167 226,277.5C 221.471,274.86 216.805,272.527 212,270.5C 211.667,270.833 211.333,271.167 211,271.5C 207.651,268.318 204.484,264.985 201.5,261.5C 200.637,260.274 200.637,258.94 201.5,257.5 Z"/></g>
<g><path style="opacity:0.573" fill="#080505" d="M 264.5,253.5 C 264.873,256.17 263.873,258.67 261.5,261C 262.056,261.383 262.389,261.883 262.5,262.5C 259.062,264.759 255.729,267.259 252.5,270C 251.552,270.483 250.552,270.649 249.5,270.5C 256.117,266.27 261.117,260.603 264.5,253.5 Z"/></g>
<g><path style="opacity:0.169" fill="#090909" d="M 385.5,258.5 C 384.737,262.37 382.737,265.37 379.5,267.5C 381.234,264.378 383.234,261.378 385.5,258.5 Z"/></g>
<g><path style="opacity:0.986" fill="#090909" d="M 378.5,268.5 C 377.415,270.587 375.749,271.92 373.5,272.5C 374.265,270.071 375.931,268.738 378.5,268.5 Z"/></g>
<g><path style="opacity:0.242" fill="#040303" d="M 279.5,207.5 C 280.376,207.369 281.043,207.702 281.5,208.5C 280.594,229.149 279.427,249.816 278,270.5C 274.255,271.297 270.421,271.797 266.5,272C 266.833,272.333 267.167,272.667 267.5,273C 265.256,275.349 264.089,274.849 264,271.5C 263.5,282.161 263.333,292.828 263.5,303.5C 272.637,303.487 281.637,302.487 290.5,300.5C 288.166,302.382 285.666,304.048 283,305.5C 276.134,304.649 268.968,304.315 261.5,304.5C 261.333,293.162 261.5,281.828 262,270.5C 267.19,268.719 272.023,268.052 276.5,268.5C 277.489,263.025 277.822,257.358 277.5,251.5C 278.495,239.011 278.829,226.344 278.5,213.5C 279.833,212.833 279.833,212.167 278.5,211.5C 278.5,211.167 278.5,210.833 278.5,210.5C 279.833,210.167 279.833,209.833 278.5,209.5C 278.5,209.167 278.5,208.833 278.5,208.5C 279.167,208.5 279.5,208.167 279.5,207.5 Z"/></g>
<g><path style="opacity:0.438" fill="#050505" d="M 256.5,272.5 C 239.446,283.364 222.613,283.031 206,271.5C 200.681,279.668 193.515,285.334 184.5,288.5C 188.148,286.007 191.814,283.507 195.5,281C 199.039,277.461 202.539,273.961 206,270.5C 210.615,273.193 215.449,275.359 220.5,277C 233.785,280.495 245.618,278.329 256,270.5C 256.464,271.094 256.631,271.761 256.5,272.5 Z"/></g>
<g><path style="opacity:0.941" fill="#080808" d="M 319.5,240.5 C 320.337,245.761 321.504,251.095 323,256.5C 326.444,265.278 332.444,271.278 341,274.5C 341.914,273.346 342.747,273.513 343.5,275C 350.431,277.128 357.264,276.962 364,274.5C 364.414,274.957 364.914,275.291 365.5,275.5C 367.782,273.454 370.449,272.454 373.5,272.5C 360.732,280.296 347.732,280.463 334.5,273C 323.456,265.063 318.456,254.229 319.5,240.5 Z"/></g>
<g><path style="opacity:0.18" fill="#060606" d="M 114.5,273.5 C 116.914,274.911 118.581,276.911 119.5,279.5C 117.086,278.089 115.419,276.089 114.5,273.5 Z"/></g>
<g><path style="opacity:0.52" fill="#090909" d="M 119.5,279.5 C 121.372,280.511 123.372,281.345 125.5,282C 124.944,282.383 124.611,282.883 124.5,283.5C 122.251,282.92 120.585,281.587 119.5,279.5 Z"/></g>
<g><path style="opacity:0.984" fill="#090909" d="M 140.5,291.5 C 138.447,291.598 136.78,290.931 135.5,289.5C 135.435,289.062 135.601,288.728 136,288.5C 137.878,289.053 139.378,290.053 140.5,291.5 Z"/></g>
<g><path style="opacity:0.915" fill="#090909" d="M 172.5,292.5 C 162.08,295.289 151.746,294.955 141.5,291.5C 141.435,291.062 141.601,290.728 142,290.5C 143.667,291.167 145.333,291.833 147,292.5C 155.804,292.374 164.304,292.374 172.5,292.5 Z"/></g>
<g><path style="opacity:1" fill="#0a0a0a" d="M 316.5,207.5 C 317.497,227.66 317.83,247.993 317.5,268.5C 318.052,280.72 313.718,290.72 304.5,298.5C 304.167,298.5 303.833,298.5 303.5,298.5C 301.754,297.782 301.088,296.782 301.5,295.5C 298.141,298.016 294.475,299.682 290.5,300.5C 297.703,297.3 303.37,292.3 307.5,285.5C 307.657,286.873 307.49,288.207 307,289.5C 305.242,290.469 304.742,291.636 305.5,293C 303.099,293.805 303.266,294.638 306,295.5C 307.914,291.911 310.248,288.578 313,285.5C 313.184,282.164 314.184,278.83 316,275.5C 316.5,252.836 316.667,230.169 316.5,207.5 Z"/></g>
<g><path style="opacity:0.408" fill="#050505" d="M 256.5,272.5 C 257.117,272.611 257.617,272.944 258,273.5C 258.021,285.323 258.688,296.99 260,308.5C 260.333,307.833 260.667,307.167 261,306.5C 269.088,307.648 277.254,307.815 285.5,307C 292.541,305.236 298.541,302.403 303.5,298.5C 303.833,298.5 304.167,298.5 304.5,298.5C 298.657,304.088 291.657,307.588 283.5,309C 274.506,309.5 265.506,309.666 256.5,309.5C 256.5,297.167 256.5,284.833 256.5,272.5 Z"/></g>
</svg>
