<?xml version="1.0" encoding="UTF-8"?>
<svg version="1.1" xmlns="http://www.w3.org/2000/svg" width="500" height="500">
<path d="M0 0 C165 0 330 0 500 0 C500 165 500 330 500 500 C335 500 170 500 0 500 C0 335 0 170 0 0 Z " fill="#FEF8F8" transform="translate(0,0)"/>
<path d="M0 0 C18.48 0 36.96 0 56 0 C56 10.89 56 21.78 56 33 C43.13 33 30.26 33 17 33 C17.09722637 39.12014399 17.20013946 45.23965656 17.31738281 51.359375 C17.35553044 53.43874388 17.39040745 55.51817555 17.421875 57.59765625 C17.46783554 60.59658158 17.52577764 63.59507988 17.5859375 66.59375 C17.59748871 67.51490601 17.60903992 68.43606201 17.62094116 69.38513184 C17.858375 79.90442577 20.48103626 89.4768221 27.25 97.75 C34.70061662 103.84595905 41.7179071 107.33002404 51 110 C46.3218555 126.78628321 35.1510116 138.72780367 20.421875 147.54296875 C0.56105801 157.95388088 -23.53897219 158.8852378 -45 153 C-53.28978386 150.31858887 -60.1341177 146.31897641 -67 141 C-67.82757813 140.38125 -68.65515625 139.7625 -69.5078125 139.125 C-84.00709162 126.7619783 -88.99965246 108.00208521 -92 90 C-92 81.75 -92 73.5 -92 65 C-73.19 65 -54.38 65 -35 65 C-34.67 71.6 -34.34 78.2 -34 85 C-30.56799236 92.84945673 -30.56799236 92.84945673 -24.25 96.6875 C-17.63444217 97.60632748 -12.92236101 97.30285518 -7 94 C-1.62511291 88.47984569 -0.70223635 83.21230431 -0.68115234 75.72143555 C-0.67110672 74.90140549 -0.6610611 74.08137543 -0.65071106 73.23649597 C-0.61991681 70.5365771 -0.60285441 67.83675723 -0.5859375 65.13671875 C-0.56722283 63.26055553 -0.54764919 61.38440069 -0.5272522 59.508255 C-0.47595664 54.5780431 -0.43631709 49.64780392 -0.39910889 44.71746826 C-0.35200654 38.79771627 -0.29041969 32.87809938 -0.23126221 26.95845795 C-0.14308134 17.9723599 -0.07329447 8.98628735 0 0 Z " fill="#181717" transform="translate(190,171)"/>
<path d="M0 0 C12.21 0 24.42 0 37 0 C37.12032643 17.52754968 37.12032643 17.52754968 37.14648438 25.05664062 C37.16434829 30.17400563 37.18537454 35.29120807 37.22631836 40.40844727 C37.25915481 44.53873146 37.27690365 48.66884108 37.28463173 52.79924583 C37.29013201 54.36714611 37.30087147 55.93503793 37.31719017 57.50286293 C37.45005928 70.80968057 36.31912533 84.14403135 27.125 94.5625 C19.68412802 101.59897676 9.13372091 106.16032958 -1.08203125 106.09765625 C-1.9222583 106.09515869 -2.76248535 106.09266113 -3.62817383 106.09008789 C-4.67900146 106.08098389 -5.7298291 106.07187988 -6.8125 106.0625 C-11.8553125 106.0315625 -11.8553125 106.0315625 -17 106 C-17 94.12 -17 82.24 -17 70 C-9.08 69.505 -9.08 69.505 -1 69 C-0.67 46.23 -0.34 23.46 0 0 Z " fill="#171616" transform="translate(288,210)"/>
<path d="M0 0 C9.9 0 19.8 0 30 0 C30.06932309 5.3532829 30.12891759 10.70497347 30.16479492 16.05834961 C30.17976973 17.8748099 30.20015684 19.69123474 30.22631836 21.50756836 C30.42025834 35.33054555 30.48042014 47.94310908 21 59 C13.84091734 66.1750985 4.3539547 69.14738676 -5.625 69.5 C-15.90764211 69.15519284 -24.56887758 64.80406758 -31.625 57.375 C-38.0005363 50.52055017 -39.60571397 41.86956936 -39.390625 32.8359375 C-39.38496521 31.91785309 -39.37930542 30.99976868 -39.37347412 30.05386353 C-39.35132475 27.1603477 -39.30117171 24.26813289 -39.25 21.375 C-39.22990718 19.39715347 -39.21166133 17.41928727 -39.1953125 15.44140625 C-39.15495466 10.62671626 -39.07662797 5.81479074 -39 1 C-29.43 1 -19.86 1 -10 1 C-9.505 19.315 -9.505 19.315 -9 38 C-6.69 38 -4.38 38 -2 38 C0.0568946 35.9431054 -0.74252924 31.64444002 -0.68359375 28.80859375 C-0.66281265 27.98875504 -0.64203156 27.16891632 -0.62062073 26.32423401 C-0.55503506 23.69541099 -0.49619874 21.06648496 -0.4375 18.4375 C-0.39432333 16.65949439 -0.35070933 14.88149935 -0.30664062 13.10351562 C-0.19851829 8.73578128 -0.09951272 4.36797309 0 0 Z " fill="#191818" transform="translate(251,208)"/>
<path d="M0 0 C8.58 0 17.16 0 26 0 C26.33 11.22 26.66 22.44 27 34 C29.97 33.505 29.97 33.505 33 33 C33.33 22.11 33.66 11.22 34 0 C42.58 0 51.16 0 60 0 C60.09242632 4.94480834 60.17187493 9.88655521 60.21972656 14.83154297 C60.23969699 16.50938131 60.26688332 18.18715136 60.30175781 19.86474609 C60.55718319 32.47825203 60.08664733 42.56804142 51 52.2421875 C43.86777403 58.51074548 36.61097074 60.44215352 27.30078125 60.33984375 C19.16077245 59.50176 11.86557286 56.00562773 6.3984375 49.8984375 C1.18473976 42.82062437 -0.15605037 36.4099746 -0.09765625 27.734375 C-0.0962413 26.94097717 -0.09482635 26.14757935 -0.09336853 25.33013916 C-0.08778415 22.80338728 -0.07523454 20.27672496 -0.0625 17.75 C-0.05748298 16.03385545 -0.05292043 14.31770951 -0.04882812 12.6015625 C-0.03867198 8.40097965 -0.01909359 4.20058973 0 0 Z " fill="#1B1A1A" transform="translate(335,214)"/>
<path d="M0 0 C3.80484394 0.71340824 5.4511805 1.6388541 8 4.5625 C8.625 8 8.625 8 8 11.5625 C5.9375 14.5 5.9375 14.5 3 16.5625 C-0.99048721 17.19257693 -3.01685857 17.19271887 -6.4375 15 C-8.63021887 11.57935857 -8.63007693 9.55298721 -8 5.5625 C-5.54999553 2.17572911 -4.13607554 0.77551416 0 0 Z " fill="#272626" transform="translate(378,190.4375)"/>
<path d="M0 0 C4.8084187 0.44729476 7.68898791 1.39683978 11 5 C11.62163712 8.65211807 11.25069768 10.48720929 9.625 13.8125 C8 16 8 16 6 17 C4.45386986 16.91348369 2.91090613 16.75997364 1.375 16.5625 C0.55773437 16.46066406 -0.25953125 16.35882813 -1.1015625 16.25390625 C-1.72804688 16.17011719 -2.35453125 16.08632812 -3 16 C-4.24213914 11.72672888 -3.69146302 9.28458881 -2.0625 5.1875 C-1.68222656 4.21167969 -1.30195313 3.23585937 -0.91015625 2.23046875 C-0.60980469 1.49441406 -0.30945313 0.75835937 0 0 Z " fill="#272626" transform="translate(347,171)"/>
<path d="M0 0 C0 0.99 0 1.98 0 3 C-1.65 3.33 -3.3 3.66 -5 4 C-5.33 4.99 -5.66 5.98 -6 7 C-4.948125 6.484375 -3.89625 5.96875 -2.8125 5.4375 C0.49457175 4.01827083 2.52470433 3.70917589 6 5 C6.66 5.66 7.32 6.32 8 7 C7.9071895 10.52679901 7.19458784 11.79460172 4.75 14.375 C2 16 2 16 -0.8125 15.75 C-1.534375 15.5025 -2.25625 15.255 -3 15 C-2 13 -2 13 1.0625 11.875 C2.031875 11.58625 3.00125 11.2975 4 11 C4 10.01 4 9.02 4 8 C3.29875 8.309375 2.5975 8.61875 1.875 8.9375 C-1.13001852 10.04805032 -3.80852311 10.71631317 -7 11 C-9 9 -9 9 -9.375 6.625 C-9 4 -9 4 -7.3125 1.6875 C-4.60883753 -0.28544288 -3.27034459 -0.36337162 0 0 Z " fill="#3C3A3A" transform="translate(295,186)"/>
<path d="M0 0 C0.99 0 1.98 0 3 0 C3.08097324 2.27024968 3.13917704 4.54132075 3.1875 6.8125 C3.22230469 8.07707031 3.25710938 9.34164062 3.29296875 10.64453125 C3 14 3 14 1.67578125 15.9296875 C-0.91824541 17.58647842 -3.00086201 17.31241021 -6 17 C-9 15 -9 15 -10 12 C-10.0685495 10.10529184 -10.08480372 8.2083166 -10.0625 6.3125 C-10.05347656 5.31863281 -10.04445313 4.32476562 -10.03515625 3.30078125 C-10.02355469 2.54152344 -10.01195312 1.78226563 -10 1 C-9.01 1 -8.02 1 -7 1 C-6.67 4.63 -6.34 8.26 -6 12 C-4.35 12.33 -2.7 12.66 -1 13 C-0.67 8.71 -0.34 4.42 0 0 Z " fill="#292828" transform="translate(333,169)"/>
<path d="M0 0 C1 1 1 1 1.25 3.375 C1 6 1 6 -0.125 7.8125 C-2.80231137 9.50813053 -4.90089373 9.2694875 -8 9 C-9 8 -9 8 -9.3125 5.125 C-9 2 -9 2 -7.3125 0.0625 C-4.41290937 -1.26974434 -2.99317984 -0.97076103 0 0 Z " fill="#F6F0F0" transform="translate(382,195)"/>
<path d="M0 0 C-1.485 1.485 -1.485 1.485 -3 3 C-2.71125 3.845625 -2.4225 4.69125 -2.125 5.5625 C-0.99227296 9.02361041 0.01824316 12.49372557 1 16 C0.01 16 -0.98 16 -2 16 C-3.65 12.7 -5.3 9.4 -7 6 C-8.65 6 -10.3 6 -12 6 C-12 5.01 -12 4.02 -12 3 C-10.75823305 2.29773859 -9.50614401 1.61370891 -8.25 0.9375 C-7.20585937 0.36322266 -7.20585937 0.36322266 -6.140625 -0.22265625 C-3.63859372 -1.1312406 -2.4667645 -0.88336837 0 0 Z " fill="#2D2C2C" transform="translate(314,174)"/>
<path d="M0 0 C5 2 5 2 6 3 C6.29178308 5.77193929 6.36366316 7.41409825 4.875 9.8125 C2.22464043 11.49106106 0.06753576 11.20450238 -3 11 C-2.01 7.37 -1.02 3.74 0 0 Z " fill="#EBE5E5" transform="translate(349,174)"/>
<path d="M0 0 C0.99 0 1.98 0 3 0 C3.05384521 2.29141286 3.09272087 4.58318188 3.125 6.875 C3.14820313 8.15117187 3.17140625 9.42734375 3.1953125 10.7421875 C3 14 3 14 1 16 C-1.625 16.125 -1.625 16.125 -4 16 C-3.51917969 15.64292969 -3.03835938 15.28585938 -2.54296875 14.91796875 C-0.31575162 12.14945328 -0.48605989 9.81840977 -0.3125 6.3125 C-0.21388672 4.54326172 -0.21388672 4.54326172 -0.11328125 2.73828125 C-0.07589844 1.83464844 -0.03851563 0.93101562 0 0 Z " fill="#222121" transform="translate(333,169)"/>
<path d="M0 0 C0.99 0.33 1.98 0.66 3 1 C1.46462766 5.91319147 -1.41360843 10.32235164 -5 14 C-5.99 14 -6.98 14 -8 14 C-6.6744419 10.37723685 -5.05653045 7.36494652 -2.875 4.1875 C-2.33617187 3.39730469 -1.79734375 2.60710937 -1.2421875 1.79296875 C-0.83226562 1.20128906 -0.42234375 0.60960937 0 0 Z " fill="#2C2A2A" transform="translate(368,180)"/>
<path d="M0 0 C1.67542976 0.28604898 3.34385343 0.61781233 5 1 C5.33 2.65 5.66 4.3 6 6 C2.21243523 9.61139896 2.21243523 9.61139896 0 11 C-2.875 10.8125 -2.875 10.8125 -5 10 C-4 8 -4 8 -0.9375 6.875 C0.5165625 6.441875 0.5165625 6.441875 2 6 C2 5.01 2 4.02 2 3 C1.01 2.34 0.02 1.68 -1 1 C-0.67 0.67 -0.34 0.34 0 0 Z " fill="#292828" transform="translate(297,191)"/>
<path d="M0 0 C0.99 0.33 1.98 0.66 3 1 C2.67 2.32 2.34 3.64 2 5 C0.02 5.33 -1.96 5.66 -4 6 C-2.25 1.125 -2.25 1.125 0 0 Z " fill="#DED8D8" transform="translate(297,193)"/>
<path d="M0 0 C1.2065625 0.0309375 1.2065625 0.0309375 2.4375 0.0625 C2.4375 1.0525 2.4375 2.0425 2.4375 3.0625 C-0.2025 3.7225 -2.8425 4.3825 -5.5625 5.0625 C-3.15007962 0.07683121 -3.15007962 0.07683121 0 0 Z " fill="#252424" transform="translate(292.5625,185.9375)"/>
<path d="M0 0 C1.65 0 3.3 0 5 0 C5 0.99 5 1.98 5 3 C3.02 3.33 1.04 3.66 -1 4 C-0.67 2.68 -0.34 1.36 0 0 Z " fill="#ECE7E7" transform="translate(290,189)"/>
</svg>
